<?xml version="1.0" encoding="UTF-8" standalone="no"?>

<svg
   width="164.87445mm"
   height="44.450001mm"
   viewBox="0 0 164.87445 44.450001"
   version="1.1"
   id="svg1"
   inkscape:version="1.3.2 (091e20e, 2023-11-25, custom)"
   sodipodi:docname="snapjay.svg"
   xmlns:inkscape="http://www.inkscape.org/namespaces/inkscape"
   xmlns:sodipodi="http://sodipodi.sourceforge.net/DTD/sodipodi-0.dtd"
   xmlns="http://www.w3.org/2000/svg"
   xmlns:svg="http://www.w3.org/2000/svg">
  <sodipodi:namedview
     id="namedview1"
     pagecolor="#ffffff"
     bordercolor="#000000"
     borderopacity="0.25"
     inkscape:showpageshadow="2"
     inkscape:pageopacity="0.0"
     inkscape:pagecheckerboard="0"
     inkscape:deskcolor="#d1d1d1"
     inkscape:document-units="mm"
     inkscape:zoom="1.0681327"
     inkscape:cx="357.63346"
     inkscape:cy="432.99863"
     inkscape:window-width="2560"
     inkscape:window-height="1377"
     inkscape:window-x="4152"
     inkscape:window-y="-8"
     inkscape:window-maximized="1"
     inkscape:current-layer="layer1" />
  <defs
     id="defs1" />
  <g
     inkscape:label="Layer 1"
     inkscape:groupmode="layer"
     id="layer1"
     transform="translate(-10.49545,-33.935778)">
    <path
       style="font-size:50.8px;line-height:1;font-family:Anton;-inkscape-font-specification:Anton;text-align:end;letter-spacing:0px;text-anchor:end;fill:#ffffff;stroke-width:0.131;stroke-linecap:round;stroke-linejoin:round;paint-order:markers fill stroke"
       d="m 21.72225,78.385778 q -5.9436,0 -8.5852,-2.9464 -2.6416,-2.9464 -2.6416,-9.4996 v -4.2672 h 8.5852 v 5.4356 q 0,3.2512 2.0828,3.2512 1.1684,0 1.6256,-0.6604 0.4572,-0.7112 0.4572,-2.3368 0,-2.1336 -0.508,-3.5052 -0.508,-1.4224 -1.3208,-2.3368 -0.762,-0.9652 -2.794,-2.9464 l -3.7592,-3.7592 q -4.3688,-4.2672 -4.3688,-9.4488 0,-5.588 2.54,-8.4836 2.5908,-2.9464 7.5184,-2.9464 5.8928,0 8.4836,3.1496 2.5908,3.0988 2.5908,9.7536 h -8.89 l -0.0508,-2.9972 q 0,-0.8636 -0.508,-1.3716 -0.4572,-0.508 -1.3208,-0.508 -1.016,0 -1.524,0.5588 -0.508,0.5588 -0.508,1.524 0,2.1336 2.4384,4.4196 l 5.08,4.8768 q 1.778,1.7272 2.9464,3.302 1.1684,1.524 1.8796,3.6576 0.7112,2.0828 0.7112,4.9784 0,6.4516 -2.3876,9.8044 -2.3368,3.302 -7.7724,3.302 z m 13.055621,-0.4064 v -43.6372 h 8.9916 l 4.0132,20.8788 v -20.8788 h 8.4328 v 43.6372 h -8.5344 l -4.3688,-21.844 v 21.844 z m 24.129957,0 4.2164,-43.6372 h 14.7828 l 4.1656,43.6372 h -8.2804 l -0.6096,-7.0612 h -5.2832 l -0.508,7.0612 z m 9.652,-14.0208 h 3.9624 l -1.9304,-22.1996 h -0.4064 z m 16.154431,-29.6164 h 11.5316 q 5.232401,0 7.467601,3.4036 2.2352,3.3528 2.2352,9.8552 0,6.5024 -1.9812,9.8044 -1.9812,3.302 -7.112001,3.302 h -3.556 v 17.272 h -8.5852 z m 9.0932,18.4912 q 1.5748,0 2.286,-0.5588 0.762,-0.6096 0.9652,-1.6764 0.254,-1.1176 0.254,-3.1496 0,-2.7432 -0.6096,-3.9624 -0.6096,-1.2192 -2.4384,-1.2192 h -0.9652 v 10.5664 z"
       id="text1"
       aria-label="SNAP" />
    <path
       d="m 116.28949,77.979383 q -2.9972,0 -5.4356,-1.1684 -2.4384,-1.1684 -3.8608,-3.4036 -1.3716,-2.286 -1.3716,-5.4864 v -10.922 h 8.5852 v 10.414 q 0,1.1684 0.4572,1.8796 0.508,0.6604 1.524,0.6604 0.9652,0 1.4224,-0.6096 0.508,-0.6604 0.508,-1.8288 v -33.5788 h 8.7884 v 32.7152 q 0,3.4036 -1.3716,5.9944 -1.3208,2.54 -3.7592,3.9624 -2.3876,1.3716 -5.4864,1.3716 z m 12.80158,-0.4064 4.2164,-43.6372 h 14.7828 l 4.1656,43.6372 h -8.2804 l -0.6096,-7.0612 h -5.2832 l -0.508,7.0612 z m 9.652,-14.0208 h 3.9624 l -1.9304,-22.1996 h -0.4064 z m 21.43763,14.0208 v -14.3764 l -6.9596,-29.2608 h 8.636 l 2.4384,14.7828 2.4384,-14.7828 h 8.636 l -6.9596,29.2608 v 14.3764 z"
       id="text2"
       style="font-size:50.8px;line-height:1;font-family:Anton;-inkscape-font-specification:Anton;text-align:end;letter-spacing:0px;text-anchor:end;fill:#3295bf;stroke-width:0.131;stroke-linecap:round;stroke-linejoin:round;paint-order:markers fill stroke"
       aria-label="JAY" />
  </g>
</svg>
